<svg xmlns="http://www.w3.org/2000/svg" width="512" height="512"><g fill="none" fill-rule="evenodd"><path fill="#FEFEFE" d="M357.001 495.834H150.743l-28.782-378.736h263.821z"/><path fill="#010202" d="m337.903 117.1-28.782 378.737h47.878L385.781 117.1z" opacity=".15"/><path fill="#2E2E30" d="M160.256 485.595h187.23l27.222-358.256H133.034l27.222 358.256ZM357 506.075H150.742c-5.362 0-9.822-4.123-10.232-9.468l-28.782-378.73a10.245 10.245 0 0 1 2.716-7.735 10.223 10.223 0 0 1 7.517-3.283h263.82c2.86 0 5.581 1.188 7.517 3.283a10.245 10.245 0 0 1 2.715 7.735l-28.781 378.73c-.41 5.345-4.87 9.468-10.232 9.468Z"/><path fill="#B4814A" d="M379.307 416.671H128.434l-26.176-255.153h303.224z"/><path fill="#010202" d="M357.607 161.516 331.431 416.67h47.878l26.175-255.154z" opacity=".15"/><path fill="#2E2E30" d="M137.7 406.432h232.344L394.12 171.76H113.617l24.082 234.673Zm241.605 20.48H128.438c-5.266 0-9.678-3.973-10.211-9.195L92.05 162.557c-.294-2.881.65-5.749 2.593-7.906a10.258 10.258 0 0 1 7.612-3.372H405.48c2.907 0 5.67 1.222 7.62 3.372a10.255 10.255 0 0 1 2.592 7.905l-26.182 255.16c-.534 5.223-4.939 9.196-10.205 9.196Z"/><path fill="#513A2B" d="M102.636 117.672h302.478V66.547H102.636z"/><path fill="#010202" d="M357.237 117.672h48.247V66.547h-48.247z" opacity=".15"/><path fill="#2E2E30" d="M112.895 107.425h281.96V76.787h-281.96v30.638Zm292.213 20.48H102.636c-5.67 0-10.26-4.58-10.26-10.24V66.547c0-5.652 4.59-10.24 10.26-10.24h302.472c5.663 0 10.26 4.588 10.26 10.24v51.118c0 5.66-4.597 10.24-10.26 10.24Z"/><path fill="#513A2B" d="M367.459 13.159H140.286L122.454 66.55H385.29z"/><path fill="#010202" d="M367.459 13.158h-47.878l17.831 53.391h47.878z" opacity=".15"/><path fill="#2E2E30" d="M136.684 56.309H371.06l-10.998-32.912H147.676L136.684 56.31Zm248.61 20.48H122.45a10.273 10.273 0 0 1-8.324-4.253 10.238 10.238 0 0 1-1.409-9.23L130.556 9.92a10.25 10.25 0 0 1 9.726-7.004h227.174c4.418 0 8.337 2.82 9.733 7.004l17.838 53.385a10.22 10.22 0 0 1-1.416 9.23 10.26 10.26 0 0 1-8.317 4.253Z"/><path fill="#513A2B" d="M322.268 283.148c0 37.704-30.621 68.267-68.397 68.267-37.776 0-68.397-30.563-68.397-68.267 0-37.703 30.621-68.266 68.397-68.266 37.776 0 68.397 30.563 68.397 68.266"/><path fill="#2E2E30" d="M253.874 225.122c-32.057 0-58.137 26.03-58.137 58.026 0 31.997 26.08 58.027 58.137 58.027 32.058 0 58.138-26.03 58.138-58.027 0-31.996-26.08-58.026-58.138-58.026m0 136.533c-43.37 0-78.656-35.219-78.656-78.507 0-43.287 35.286-78.506 78.656-78.506 43.37 0 78.657 35.219 78.657 78.506 0 43.288-35.286 78.507-78.657 78.507"/><path fill="#513A2B" d="M322.268 283.148c0 37.704-30.621 68.267-68.397 68.267-37.776 0-68.397-30.563-68.397-68.267 0-37.703 30.621-68.266 68.397-68.266 37.776 0 68.397 30.563 68.397 68.266"/><path fill="#010202" d="M286.586 223.19a67.881 67.881 0 0 1 8.324 32.651c0 37.704-30.622 68.267-68.397 68.267-11.853 0-22.995-3.01-32.714-8.308 11.6 21.217 34.15 35.614 60.073 35.614 37.775 0 68.397-30.563 68.397-68.266 0-25.873-14.425-48.38-35.683-59.959" opacity=".15"/><path fill="#2E2E30" d="M253.874 225.122c-32.057 0-58.137 26.03-58.137 58.026 0 31.997 26.08 58.027 58.137 58.027 32.058 0 58.138-26.03 58.138-58.027 0-31.996-26.08-58.026-58.138-58.026m0 136.533c-43.37 0-78.656-35.219-78.656-78.507 0-43.287 35.286-78.506 78.656-78.506 43.37 0 78.657 35.219 78.657 78.506 0 43.288-35.286 78.507-78.657 78.507"/></g></svg>