<svg xmlns="http://www.w3.org/2000/svg" enable-background="new 0 0 512 512" viewBox="0 0 512 512"><path fill="#993e29" d="M302,72.5V15.2C302,9.6,306.6,5,312.2,5h25.7c5.6,0,10.2,4.6,10.2,10.2v57.3H302z"/><polygon fill="#993e29" points="94 85 117.7 35 394.3 35 418 85 418 110 94 110"/><polygon fill="#b1614a" points="94 85 117.7 35 302 35 325 85 325 110 94 110"/><polygon fill="#d37762" points="136 85 159.8 35 209 35 189.6 85 189.6 110 136 110"/><polygon fill="#747e6c" points="418 135 394.3 507 117.7 507 94 135 94 110 418 110"/><path fill="#c4c1ab" d="M339.9,354l6.6-145.7c0.9-19.3-14.5-35.3-33.8-35.3H96.4L108,354H339.9z"/><polygon fill="#c4c1ab" points="112.2 421 117.7 507 333 507 336.9 421"/><rect width="380" height="50" x="66" y="85" fill="#b1614a"/><rect width="98" height="50" x="348" y="85" fill="#993e29"/><rect width="50" height="50" x="113.3" y="85" fill="#d37762"/><polygon fill="#eda900" points="93.9 406 81 216 431 216 418.1 406"/><polygon fill="#f8d707" points="93.9 406 81 216 371 216 358.1 406"/><ellipse cx="256" cy="311" fill="#b1614a" rx="41" ry="53" transform="rotate(45.001 256.005 310.999)"/><path fill="#993e29" d="M302.5,290.7c-0.8-3.7-2-7.1-3.8-10.3L284.1,295c-7.3,7.3-17.4,11.3-27.7,10.8
			c-13.1-0.5-26,4.5-35.2,13.8l-11.7,11.7c0.8,3.7,2,7.1,3.8,10.3l14.9-14.9c7.3-7.3,17.4-11.3,27.7-10.8c13.1,0.5,26-4.5,35.2-13.8
			L302.5,290.7z"/></svg>